# xmcd
#
# Track frame offsets:
#	150
#	21169
#	40194
#	71982
#	93786
#	105656
#	117229
#
# Disc length: 1720 seconds
#
# Revision: 1
# Processed by: cddbd v1.5.2PL0 Copyright (c) Steve Scherf et al.
# Submitted via: audiograbber 1.83.01
#
DISCID=5606b607
DTITLE=Schubert - Blues Bunnies
DYEAR=2008
DGENRE=Blues
TTITLE0=One of a kind
TTITLE1=Save this drama for your Mama
TTITLE2=Hells Fire
TTITLE3=Just another Night
TTITLE4=Set this House on Fire - Medina Mix
TTITLE5=Set this House on Fire - Trance Mix
TTITLE6=Set this House on Fire - Schubl Mix
EXTD=
EXTT0=
EXTT1=
EXTT2=
EXTT3=
EXTT4=
EXTT5=
EXTT6=
PLAYORDER=
